# xmcd
#
# Track frame offsets:
#	150
#	14565
#	27195
#	41767
#	55307
#	66390
#	77187
#	89255
#	99202
#	111685
#	129367
#	140942
#
# Disc length: 2035 seconds
#
# Revision: 3
# Processed by: cddbd v1.5.1PL2 Copyright (c) Steve Scherf et al.
# Submitted via: audiograbber 1.83.01
#
DISCID=ad07f10c
DTITLE=Tom Astor - Freiheit die ich meine
DYEAR=1900
DGENRE=Country
TTITLE0=International Airport (Frankfurt am Main)
TTITLE1=Von New York nach L. A.
TTITLE2=Ich trink mein Bier gern aus der Flasche
TTITLE3=Six Days On The Road
TTITLE4=Ja, das sind Stunden (die vergisst man nie)
TTITLE5=Irgendwo (Duett mit Rattlesnake Annie)
TTITLE6=Freunde
TTITLE7=Sicht weg - Gas weg
TTITLE8=Ich bin dafür, daß wir dagegen sind
TTITLE9=Mein Freund Charlie
TTITLE10=Blue Jeans, Rock 'n' Roll und Elvis
TTITLE11=Ich brauch' eine kleine Dosis Freiheit
EXTD=
EXTT0=
EXTT1=
EXTT2=
EXTT3=
EXTT4=
EXTT5=
EXTT6=
EXTT7=
EXTT8=
EXTT9=
EXTT10=
EXTT11=
PLAYORDER=
